<?xml version="1.0" encoding="UTF-8"?>
<svg id="Layer_1" xmlns="http://www.w3.org/2000/svg" version="1.1" viewBox="0 0 88 81.28">
  <!-- Generator: Adobe Illustrator 30.6.0, SVG Export Plug-In . SVG Version: 2.1.4 Build 109)  -->
  <defs>
    <style>
      .st0 {
        fill: #ff323d;
      }

      .st1 {
        fill-rule: evenodd;
      }

      .st1, .st2 {
        fill: #3a3b45;
      }

      .st3 {
        fill: #ffd21e;
      }

      .st4 {
        fill: #ff9d0b;
      }
    </style>
  </defs>
  <path class="st3" d="M43.75,73.5c19.19,0,34.75-15.56,34.75-34.75S62.94,4,43.75,4,9,19.56,9,38.75s15.56,34.75,34.75,34.75Z"/>
  <path class="st4" d="M78.5,38.75c0-19.19-15.56-34.75-34.75-34.75S9,19.56,9,38.75h0c0,19.19,15.56,34.75,34.75,34.75s34.75-15.56,34.75-34.75ZM5,38.75C5,17.35,22.35,0,43.75,0s38.75,17.35,38.75,38.75-17.35,38.75-38.75,38.75S5,60.15,5,38.75Z"/>
  <path class="st2" d="M55.04,29.3c1.28.44,1.78,3.06,3.07,2.38,2.44-1.29,3.37-4.32,2.07-6.76-1.29-2.44-4.32-3.37-6.76-2.07-2.44,1.29-3.37,4.32-2.07,6.76,0,0,0,0,0,0,.61,1.15,2.55-.72,3.7-.32h0ZM31.49,29.3c-1.28.44-1.79,3.06-3.07,2.38-2.44-1.29-3.37-4.32-2.07-6.76,1.29-2.44,4.32-3.37,6.76-2.07,2.44,1.29,3.37,4.32,2.07,6.76,0,0,0,0,0,0-.61,1.15-2.56-.72-3.7-.32h.01Z"/>
  <path class="st0" d="M43.5,53.29c9.83,0,13-8.76,13-13.26,0-2.34-1.57-1.6-4.09-.36-2.33,1.15-5.46,2.74-8.9,2.74-7.19,0-13-6.88-13-2.38s3.16,13.26,13,13.26h-.01Z"/>
  <path class="st1" d="M35.97,51c1.07-2.17,2.99-3.79,5.3-4.49.4-.12.81.57,1.24,1.28.4.68.82,1.37,1.24,1.37.45,0,.9-.68,1.33-1.35.45-.7.89-1.38,1.32-1.25,2.15.68,3.94,2.18,5,4.17,3.73-2.94,5.1-7.74,5.1-10.7,0-2.34-1.57-1.6-4.09-.36l-.14.07c-2.31,1.15-5.39,2.67-8.77,2.67s-6.45-1.52-8.77-2.67c-2.6-1.29-4.23-2.1-4.23.29,0,3.05,1.46,8.06,5.47,10.97Z"/>
  <path class="st4" d="M67.25,34c1.79,0,3.25-1.46,3.25-3.25s-1.46-3.25-3.25-3.25h0c-1.79,0-3.25,1.46-3.25,3.25s1.46,3.25,3.25,3.25ZM20.75,34c1.79,0,3.25-1.46,3.25-3.25s-1.46-3.25-3.25-3.25-3.25,1.46-3.25,3.25,1.46,3.25,3.25,3.25ZM14.06,45c-1.62,0-3.06.66-4.07,1.87-.86,1.06-1.33,2.39-1.33,3.76-.63-.19-1.28-.29-1.94-.3-1.55,0-2.95.59-3.94,1.66-1.82,1.89-2.14,4.75-.8,7-.89.72-1.51,1.71-1.79,2.82-.24.9-.48,2.8.8,4.74-.98,1.5-1.11,3.39-.37,5.02,1.02,2.32,3.57,4.14,8.52,6.1,3.07,1.22,5.89,2,5.91,2.01,3.56.99,7.23,1.52,10.93,1.6,5.86,0,10.05-1.8,12.46-5.34,3.88-5.69,3.33-10.9-1.7-15.92-2.77-2.78-4.62-6.87-5-7.77-.78-2.66-2.84-5.62-6.25-5.62-1.84.03-3.55.95-4.6,2.46-1-1.26-1.98-2.25-2.86-2.82-1.17-.79-2.55-1.24-3.97-1.27ZM14.06,49c.51,0,1.14.22,1.82.65,2.14,1.36,6.25,8.43,7.76,11.18.5.92,1.37,1.31,2.14,1.31,1.55,0,2.75-1.53.15-3.48-3.92-2.93-2.55-7.72-.68-8.01.08-.02.17-.02.24-.02,1.7,0,2.45,2.93,2.45,2.93,0,0,2.2,5.52,5.98,9.3,3.77,3.77,3.97,6.8,1.22,10.83-1.88,2.75-5.47,3.58-9.16,3.58s-7.73-.9-9.92-1.46c-.11-.03-13.45-3.8-11.76-7,.28-.54.75-.76,1.34-.76,2.38,0,6.7,3.54,8.57,3.54.41,0,.7-.17.83-.6.79-2.85-12.06-4.05-10.98-8.17.2-.73.71-1.02,1.44-1.02,3.14,0,10.2,5.53,11.68,5.53.11,0,.2-.03.24-.1.74-1.2.33-2.04-4.9-5.2-5.21-3.16-8.88-5.06-6.8-7.33.24-.26.58-.38,1-.38,3.17,0,10.66,6.82,10.66,6.82,0,0,2.02,2.1,3.25,2.1.28,0,.52-.1.68-.38.86-1.46-8.06-8.22-8.56-11.01-.34-1.9.24-2.85,1.31-2.85h0Z"/>
  <path class="st3" d="M35.14,73.69c2.75-4.04,2.55-7.07-1.22-10.84-3.78-3.77-5.98-9.3-5.98-9.3,0,0-.82-3.2-2.69-2.9s-3.24,5.08.68,8.01c3.91,2.93-.78,4.92-2.29,2.17-1.5-2.75-5.62-9.82-7.76-11.18-2.13-1.35-3.63-.6-3.13,2.2.5,2.79,9.43,9.55,8.56,11-.87,1.47-3.93-1.71-3.93-1.71,0,0-9.57-8.71-11.66-6.44-2.08,2.27,1.59,4.17,6.8,7.33,5.23,3.16,5.64,4,4.9,5.2-.75,1.2-12.28-8.53-13.36-4.4-1.08,4.11,11.77,5.3,10.98,8.15-.8,2.85-9.06-5.38-10.74-2.18-1.7,3.21,11.65,6.98,11.76,7.01,4.3,1.12,15.25,3.49,19.08-2.12Z"/>
  <path class="st4" d="M73.94,45c1.62,0,3.07.66,4.07,1.87.86,1.06,1.33,2.39,1.33,3.76.63-.19,1.29-.29,1.95-.3,1.55,0,2.95.59,3.94,1.66,1.82,1.89,2.14,4.75.8,7,.88.72,1.51,1.71,1.78,2.82.24.9.48,2.8-.8,4.74.98,1.5,1.11,3.39.37,5.02-1.02,2.32-3.57,4.14-8.51,6.1-3.08,1.22-5.9,2-5.92,2.01-3.56.99-7.23,1.52-10.93,1.6-5.86,0-10.05-1.8-12.46-5.34-3.88-5.69-3.33-10.9,1.7-15.92,2.78-2.78,4.63-6.87,5.01-7.77.78-2.66,2.83-5.62,6.24-5.62,1.84.03,3.55.95,4.6,2.46,1-1.26,1.98-2.25,2.87-2.82,1.17-.79,2.55-1.23,3.96-1.27ZM73.94,49c-.51,0-1.13.22-1.82.65-2.13,1.36-6.25,8.43-7.76,11.18-.42.8-1.24,1.3-2.14,1.31-1.54,0-2.75-1.53-.14-3.48,3.91-2.93,2.54-7.72.67-8.01-.08-.01-.16-.02-.24-.02-1.7,0-2.45,2.93-2.45,2.93,0,0-2.2,5.52-5.97,9.3-3.78,3.77-3.98,6.8-1.22,10.83,1.87,2.75,5.47,3.58,9.15,3.58s7.73-.9,9.93-1.46c.1-.03,13.45-3.8,11.76-7-.29-.54-.75-.76-1.34-.76-2.38,0-6.71,3.54-8.57,3.54-.42,0-.71-.17-.83-.6-.8-2.85,12.05-4.05,10.97-8.17-.19-.73-.7-1.02-1.44-1.02-3.14,0-10.2,5.53-11.68,5.53-.1,0-.19-.03-.23-.1-.74-1.2-.34-2.04,4.88-5.2,5.23-3.16,8.9-5.06,6.8-7.33-.23-.26-.57-.38-.98-.38-3.18,0-10.67,6.82-10.67,6.82,0,0-2.02,2.1-3.24,2.1-.28.01-.54-.13-.68-.38-.87-1.46,8.05-8.22,8.55-11.01.34-1.9-.24-2.85-1.31-2.85h0Z"/>
  <path class="st3" d="M52.87,73.69c-2.75-4.04-2.56-7.07,1.22-10.84,3.77-3.77,5.97-9.3,5.97-9.3,0,0,.82-3.2,2.7-2.9,1.86.3,3.23,5.08-.68,8.01-3.92,2.93.78,4.92,2.28,2.17,1.51-2.75,5.63-9.82,7.76-11.18,2.13-1.35,3.64-.6,3.13,2.2-.5,2.79-9.42,9.55-8.55,11,.86,1.47,3.92-1.71,3.92-1.71,0,0,9.58-8.71,11.66-6.44,2.08,2.27-1.58,4.17-6.8,7.33-5.23,3.16-5.63,4-4.9,5.2.75,1.2,12.28-8.53,13.36-4.4,1.08,4.11-11.76,5.3-10.97,8.15.8,2.85,9.05-5.38,10.74-2.18,1.69,3.21-11.65,6.98-11.76,7.01-4.31,1.12-15.26,3.49-19.08-2.12h0Z"/>
</svg>