<?xml version="1.0" encoding="utf-8"?>
<!-- Generator: Adobe Illustrator 16.0.4, SVG Export Plug-In . SVG Version: 6.00 Build 0)  -->
<!DOCTYPE svg PUBLIC "-//W3C//DTD SVG 1.1//EN" "http://www.w3.org/Graphics/SVG/1.1/DTD/svg11.dtd">
<svg version="1.1" id="SATURN3_Logo" xmlns="http://www.w3.org/2000/svg" xmlns:xlink="http://www.w3.org/1999/xlink" x="0px"
	 y="0px" width="283.464px" height="127.559px" viewBox="0 0 283.464 127.559" enable-background="new 0 0 283.464 127.559"
	 xml:space="preserve">
<path fill="#142864" d="M203.938,93.387c0.875-1.849,1.676-3.74,2.389-5.673c41.322-14.49,68.199-31.471,66.101-41.375
	c-1.248-5.889-12.703-9.111-30.898-9.727c2.307-5.351,3.32-10.55,2.857-15.363c22.343,2.294,36.813,8.34,38.837,17.885
	C286.633,55.223,253.715,76.661,203.938,93.387z M109.13,63.768l-8.657,2.529l-4.35-5.621l-12.484,3.645l-0.524,7.043l-8.475,2.475
	l4.138-36.303l7.563-2.208L109.13,63.768z M92.164,55.041l-7.233-9.934l-0.876,12.302L92.164,55.041z M144.306,49.506
	c-4.463,0.913-6.847-2-7.568-5.543l-4.05-19.911l-7.904,1.615l4.182,20.565c1.612,7.928,8.106,12.233,16.754,10.466
	c8.602-1.76,13.081-8.311,11.469-16.239l-4.183-20.563l-7.951,1.625l4.05,19.912C149.827,44.977,148.816,48.584,144.306,49.506z
	 M121.392,26.417L95.07,32.865l1.643,6.749l9.22-2.258l6.326,25.984l7.883-1.931l-6.327-25.985l9.219-2.257L121.392,26.417z
	 M229.723,11.327c1.268-0.099,2.513,0.553,2.623,1.964c0.147,1.882-1.502,2.456-3.239,2.594l-1.352,0.106l0.267,3.402l1.241-0.1
	c1.929-0.152,4.017,0.27,4.172,2.263c0.143,1.825-1.322,2.608-2.647,2.711c-1.764,0.139-3.04-0.901-3.5-2.173l-4.213,1.472
	c1.334,3.569,4.681,4.864,8.238,4.585c3.586-0.284,7.213-2.516,6.879-6.805c-0.171-2.185-1.859-3.887-4.106-4.239l-0.005-0.082
	c1.864-0.648,3.118-2.363,2.948-4.52c-0.292-3.762-3.853-5.263-7.299-4.992c-3.254,0.256-6.211,2.187-6.891,5.551l4.38,0.657
	C227.417,12.372,228.398,11.431,229.723,11.327z M189.324,48.065l-9.365,1.548l-9.333-12.008l-2.715,0.448l2.169,13.196l-7.867,1.3
	l-5.466-33.245l12.642-2.093c6.366-1.052,13.09,0.345,14.34,7.952c0.734,4.461-1.363,8.088-5.407,10.106L189.324,48.065z
	 M175.841,26.612c-0.51-3.1-3.559-3.222-5.948-2.826l-4.261,0.705l1.275,7.747l3.792-0.627
	C173.274,31.185,176.397,29.994,175.841,26.612z M198.988,46.899l-2.781-21.857l0.142-0.018l16.021,20.282l9.142-1.089l-3.963-33.46
	l-7.822,0.932l2.775,21.811l-0.142,0.017l-15.969-20.238l-9.189,1.093l3.964,33.46L198.988,46.899z M56.482,64.95
	c4.636-0.089,7.321-0.161,8.155,2.27c0.88,2.565-0.876,4.177-3.21,4.982c-2.512,0.866-5.833,0.402-8.021-1.008l-3.267,6.864
	c3.785,1.967,8.933,2.054,13.465,0.489c6.283-2.166,11.035-7.478,8.519-14.815c-2.175-6.345-8.372-6.271-13.158-6.181
	c-3.332,0.091-5.447,0.066-6.173-2.049c-0.864-2.521,1.373-4.047,3.347-4.727c1.974-0.683,4.723-0.422,6.596,0.795l3.116-6.864
	c-3.661-1.605-8.163-1.562-11.753-0.324c-5.923,2.042-11.292,7.165-8.871,14.23C47.203,64.375,51.997,65.039,56.482,64.95z
	 M13.027,101.637c-1.415-6.677,10.552-15.575,31.24-24.712c-4.199-4.263-6.977-8.942-8.029-13.87
	C11.899,75.577-2.036,88.711,0.242,99.459c3.455,16.304,43.217,22.407,96.533,17.013c-1.553-1.329-3.05-2.72-4.48-4.179
	C47.578,116.237,15.16,111.701,13.027,101.637z M141.521,0c-3.136,0-6.218,0.234-9.234,0.676c0.696,0.599,1.692,1.209,3.369,1.689
	c6.227,1.782,8.449,0.356,9.117,3.563c0.667,3.208-3.335,6.415-10.006,4.633c-6.67-1.781-13.341,4.454-16.453,0.535
	c-1.497-1.885-1.335-4.385-0.037-6.674C107.045,8.864,97.364,16.42,90.304,26.03c12.533-3.221,25.521-6.242,38.791-8.999
	c15.237-3.166,30.283-5.873,44.849-8.089C164.442,3.27,153.357,0,141.521,0z M192.166,96.004
	c-3.983,3.81-12.079,13.278-17.644,10.474c-5.564-2.805-6.122-13.437-0.685-16.773s9.076-7.542,15.234-13.244
	c6.16-5.701,9.085-10.329,8.889-18.146c-0.04-1.565-0.045-2.952-0.005-4.417c-8.854,1.139-17.986,2.515-27.362,4.105
	c-1.494,5.927-5.789,10.522-11.038,9.2c-6.309-1.588-7.503,1.39-15.346,5.958c-7.844,4.567-14.396,3.087-14.153-0.596
	c0.112-1.687,0.988-4.227,2.411-7.14c-4.821,1.1-9.812,2.324-14.866,3.636c0.683,1.566,0.899,3.843,1.089,6.312
	c0.42,5.465,7.183,26.211,2.56,31.045c-4.624,4.833-5.953,5.239-16.25,1.667c-8.913-3.092-17.732-12.353-21.678-18.614
	c9.719,22.058,31.552,37.585,56.993,38.063c-1.753-0.306-3.561-0.66-5.419-1.055c-13.265-2.825-12.764-10.089-10.261-11.905
	c2.502-1.816,5.939-3.932,8.096-9.638c1.625-4.295,0.164-7.513,5.919-8.724c5.756-1.21,8.76,4.641,20.023,7.062
	c8.587,1.846,6.006,11.703,3.253,19.371c-0.25,0.698-0.592,1.3-0.975,1.858c20.344-6.563,36.242-23.141,41.91-43.916
	C199.016,87.876,194.233,94.026,192.166,96.004z"/>
<path fill="#C8D200" d="M158.673,103.274c-11.263-2.421-14.267-8.272-20.023-7.062c-5.756,1.211-4.294,4.429-5.919,8.724
	c-2.157,5.706-5.593,7.822-8.096,9.638c-2.503,1.815-3.004,9.08,10.261,11.905c1.858,0.396,3.666,0.75,5.419,1.055
	c0.402,0.008,0.802,0.026,1.207,0.026c6.772,0,13.297-1.075,19.423-3.044c0.386-0.562,0.73-1.168,0.982-1.87
	C164.679,114.977,167.26,105.12,158.673,103.274z"/>
<path fill="#64C8D2" d="M118.314,11.096c3.112,3.919,9.783-2.316,16.453-0.535c6.67,1.782,10.672-1.426,10.006-4.633
	c-0.667-3.207-2.89-1.781-9.117-3.563c-1.679-0.48-2.675-1.091-3.371-1.69c-4.867,0.712-9.554,1.979-14,3.731
	C116.978,6.699,116.814,9.207,118.314,11.096z M83.32,89.468c-1.333-3.02-2.439-6.161-3.294-9.403
	c-0.019-0.082-0.05-0.193-0.068-0.275c11.302-3.446,24.648-7.367,37.643-10.731c0.684,1.566,0.899,3.844,1.089,6.313
	c0.42,5.465,7.183,26.211,2.56,31.045c-4.624,4.833-5.953,5.239-16.25,1.667C96.086,104.991,87.266,95.729,83.32,89.468z"/>
<path fill="#DCD296" d="M197.96,58.314c0.196,7.817-2.729,12.445-8.889,18.146c-6.159,5.702-9.798,9.908-15.234,13.244
	s-4.879,13.968,0.685,16.773c5.565,2.805,13.661-6.664,17.644-10.474c2.073-1.983,6.874-8.157,10.724-15.469
	c1.484-5.381,2.226-11.094,2.226-16.94c0-3.624-0.321-7.017-0.906-10.477c-2.064,0.243-4.159,0.503-6.254,0.771
	C197.915,55.358,197.92,56.747,197.96,58.314z"/>
<path fill="#828278" d="M146.351,82.904c-1.281,6.006,5.124,6.712,11.208,7.948c6.084,1.237,9.448-0.177,15.212-7.242
	c5.764-7.065,11.689-9.537,11.529-15.013c-0.16-5.475-4.003-10.95-5.604-10.244s-2.562,9.715-5.924,13.6
	c-3.363,3.886-13.291,0.707-17.453,2.121C151.155,75.485,147.631,76.898,146.351,82.904"/>
<path fill="#46B482" d="M144.209,73.16c7.843-4.568,9.037-7.546,15.346-5.958c5.25,1.322,9.545-3.273,11.039-9.201
	c-10.155,1.719-20.59,3.705-31.303,5.924c-2.187,0.453-4.534,0.97-6.819,1.489c-1.426,2.917-2.304,5.461-2.416,7.15
	C129.813,76.247,136.365,77.727,144.209,73.16z M127.319,84.723c0,0,0.795-3.376,2.582-4.965c1.787-1.588,5.362-0.198,8.54,0.994
	c3.177,1.191,0.596,3.575-3.972,5.958C129.901,89.092,127.716,87.504,127.319,84.723"/>
</svg>
